<svg width="512" height="512" viewBox="0 0 512 512" fill="none" xmlns="http://www.w3.org/2000/svg">
<g clip-path="url(#clip0_37_201)">
<path d="M256 6C117.929 6 6 117.929 6 256C6 394.071 117.929 506 256 506C394.071 506 506 394.071 506 256C506 117.929 394.071 6 256 6ZM254.955 383.577C201.364 383.577 164.523 348.596 163.024 296.977H227.033C227.782 314.557 238.715 326.239 255.114 326.239C272.16 326.239 284.114 313.691 284.114 295.466C284.114 277.241 271.726 265.93 252.319 265.93H212.374V252.03L252.982 185.267H169.282V128.423H340.4V139.88L290.348 220.007C326.102 228.977 348.976 257.92 348.976 296.542C348.976 347.258 309.672 383.577 254.955 383.577Z" fill="white"/>
<ellipse cx="261.5" cy="258" rx="178.5" ry="188" fill="white"/>
<path d="M102.6 344V288.8L229 108H305.4V284.8H338.2V344H305.4V396H237V344H102.6ZM241.8 185.6L178.6 284.8H241.8V185.6Z" fill="black"/>
</g>
<defs>
<clipPath id="clip0_37_201">
<rect width="512" height="512" fill="white"/>
</clipPath>
</defs>
</svg>
